<svg xmlns="http://www.w3.org/2000/svg" viewBox="0 0 64 64" fill="none">
  <circle cx="32" cy="32" r="27" stroke="#704c68" stroke-width="1.5"/>
  <path d="M17 45c-6-7-7-16-3-24m33 24c6-7 7-16 3-24" stroke="#e7c26a" stroke-width="2" stroke-linecap="round"/>
  <path d="M14 37l-6-2m8-5-6-4m10-3-4-6m34 20 6-2m-8-5 6-4m-10-3 4-6" stroke="#e7c26a" stroke-width="2" stroke-linecap="round"/>
  <path d="M22 21c2-4 6-6 10-6s8 2 10 6c3 6 1 14-4 17v8l-4-3-2 4-2-4-4 3v-8c-5-3-7-11-4-17Z" stroke="#ff7a3d" stroke-width="2.4" stroke-linejoin="round"/>
  <circle cx="27" cy="29" r="2.5" fill="#ff7a3d"/>
  <circle cx="37" cy="29" r="2.5" fill="#ff7a3d"/>
  <path d="m32 33-2 4h4l-2-4Z" fill="#ff7a3d"/>
</svg>
